<svg width="64" height="65" viewBox="0 0 64 65" fill="none" xmlns="http://www.w3.org/2000/svg">
<rect x="2" y="2" width="60" height="61" rx="13" fill="black"/>
<rect x="2" y="2" width="60" height="61" rx="13" stroke="black" stroke-width="4"/>
<path d="M53.7381 40.2048H36.4524C35.1511 40.2048 34.0952 41.0108 34.0952 42.0043V55.2005C34.0952 56.194 35.1511 57 36.4524 57H53.7381C55.0394 57 56.0952 56.194 56.0952 55.2005V42.0043C56.0952 41.0108 55.0394 40.2048 53.7381 40.2048Z" fill="#F27C33"/>
<path d="M16.5638 9C11.2838 9 7 13.2744 7 18.5427C7 23.8111 11.2838 28.0855 16.5638 28.0855C21.1132 28.0855 24.9254 24.9112 25.8885 20.6634H33.494V16.4221H25.8885C24.9254 12.1743 21.1132 9 16.5638 9ZM21.877 18.5427C21.877 21.4652 19.4927 23.8443 16.5638 23.8443C13.6349 23.8443 11.2506 21.4652 11.2506 18.5427C11.2506 15.6203 13.6349 13.2412 16.5638 13.2412C19.4927 13.2412 21.877 15.6203 21.877 18.5427Z" fill="#F27C33"/>
<path d="M36.2835 24.2592H54.1359C55.0602 24.2592 55.8095 23.5115 55.8095 22.5892V14.7959C55.8095 13.8736 55.0602 13.126 54.1359 13.126H36.2835C35.3591 13.126 34.6098 13.8736 34.6098 14.7959V15.3526H34.3309C33.8687 15.3526 33.494 15.7264 33.494 16.1876V21.1975C33.494 21.6587 33.8687 22.0325 34.3309 22.0325H34.6098V22.5892C34.6098 23.5115 35.3591 24.2592 36.2835 24.2592Z" fill="#F27C33"/>
<path d="M54.449 33.8535H41.2687V32.0221C41.2687 29.973 42.9534 28.2706 45.058 28.2499C47.1839 28.2292 48.9218 29.9109 48.9218 31.9755V32.8035C48.9218 33.4917 49.2958 33.8535 50.0027 33.8535H52.1796C52.8864 33.8535 53.1735 33.4917 53.1735 32.8035V33.5652C53.1735 29.2185 49.533 25.6843 45.0687 25.6998C40.6044 25.7154 37.017 29.2962 37.017 33.6428V33.8535H35.7415C34.3331 33.8535 33.1905 34.966 33.1905 36.3373C33.1905 37.7085 34.3331 38.8211 35.7415 38.8211H54.449C55.8574 38.8211 57 37.7085 57 36.3373C57 34.966 55.8574 33.8535 54.449 33.8535Z" fill="#F27C33"/>
<path d="M12.9105 39.6831C12.971 40.0419 13.2826 40.3121 13.6546 40.3121H14.4219C14.8776 40.3121 15.2403 39.9161 15.1799 39.4734C15.0032 38.1594 14.4172 36.9479 13.4779 35.9927C12.8082 35.3078 12.3804 34.4411 12.2502 33.4999C12.199 33.1318 11.8828 32.8569 11.5015 32.8569H10.7388C10.2831 32.8569 9.92969 33.2529 9.98084 33.6956C10.1622 35.182 10.8179 36.5519 11.8689 37.6282C12.4269 38.1967 12.785 38.9096 12.9105 39.6831ZM18.1189 39.6831C18.1793 40.0419 18.4909 40.3121 18.8629 40.3121H19.6302C20.0859 40.3121 20.4487 39.9161 20.3882 39.4734C20.2115 38.1594 19.6256 36.9479 18.6862 35.9927C18.0166 35.3078 17.5887 34.4411 17.4585 33.4999C17.4074 33.1318 17.0911 32.8569 16.7098 32.8569H15.9472C15.4914 32.8569 15.1334 33.2529 15.1892 33.6956C15.3705 35.182 16.0262 36.5519 17.0772 37.6282C17.6352 38.1967 17.9933 38.9096 18.1189 39.6831ZM25.6012 41.8032H8.4881C7.66499 41.8032 7 42.4695 7 43.2942V52.2405C7 54.7101 8.99963 56.7137 11.4643 56.7137H20.3929C22.8575 56.7137 24.8571 54.7101 24.8571 52.2405H25.6012C28.4751 52.2405 30.8095 49.9015 30.8095 47.0219C30.8095 44.1423 28.4751 41.8032 25.6012 41.8032ZM25.6012 49.2584H24.8571V44.7853H25.6012C26.8335 44.7853 27.8333 45.7871 27.8333 47.0219C27.8333 48.2566 26.8335 49.2584 25.6012 49.2584Z" fill="#F27C33"/>
</svg>
