<svg width="100" height="101" viewBox="0 0 100 101" fill="none" xmlns="http://www.w3.org/2000/svg">
<rect x="2" y="2" width="96" height="97" rx="15" stroke="#531220" stroke-width="3"/>
<path d="M41.5941 33.5091H51.6514V33.7881C51.6514 34.6989 52.3579 35.4516 53.2581 35.503V35.8176C53.2581 37.4338 54.556 38.753 56.1682 38.753H81.8756C83.4878 38.753 84.7857 37.4338 84.7857 35.8176V24.4524C84.7857 22.8362 83.4878 21.517 81.8756 21.517H56.1682C54.556 21.517 53.2581 22.8362 53.2581 24.4524V24.767C52.4105 24.8154 51.7346 25.4855 51.6585 26.3239H41.5941C40.0187 20.1057 34.4266 15.5 27.7718 15.5C19.8876 15.5 13.5 21.9622 13.5 29.9165C13.5 37.8708 19.8876 44.333 27.7718 44.333C34.4266 44.333 40.0187 39.7273 41.5941 33.5091ZM73.8673 50.7134C73.8673 51.0886 73.9321 51.4404 74.0796 51.7447H63.8469V49.5739C63.8469 46.8585 66.0534 44.6001 68.8086 44.5727C71.5977 44.5452 73.8673 46.7792 73.8673 49.506V50.7134ZM80.9898 50.7134H80.938C80.3667 44.6117 75.1372 39.8317 68.8171 39.8539C62.1787 39.8773 56.8294 45.2173 56.726 51.7447H55.3878C53.0902 51.7447 51.2143 53.5844 51.2143 55.8669C51.2143 58.1494 53.0902 59.9891 55.3878 59.9891H82.3265C84.6241 59.9891 86.5 58.1494 86.5 55.8669C86.5 53.5844 84.6241 51.7447 82.3265 51.7447H80.9898V50.7134ZM22.0175 60.8253L22.0179 60.8282C22.1438 61.5849 22.7947 62.1635 23.5826 62.1635H24.6875C25.6335 62.1635 26.4032 61.332 26.2747 60.3746C26.0063 58.3539 25.1157 56.4877 23.6871 55.0163C22.7965 54.0934 22.2286 52.9276 22.0557 51.6613L22.0556 51.661C21.9481 50.877 21.2815 50.2912 20.4821 50.2912H19.3839C18.4271 50.2912 17.6883 51.1308 17.7956 52.0711L17.796 52.0742C18.0701 54.3491 19.0617 56.4479 20.6512 58.0965L20.6521 58.0975C21.3837 58.8522 21.8528 59.7978 22.0175 60.8253ZM29.5175 60.8253L29.5179 60.8282C29.6438 61.5849 30.2947 62.1635 31.0826 62.1635H32.1875C33.1335 62.1635 33.9032 61.332 33.7747 60.3746C33.5063 58.3539 32.6158 56.4878 31.1872 55.0165C30.2966 54.0936 29.7286 52.9276 29.5557 51.6613L29.5556 51.661C29.4481 50.877 28.7815 50.2912 27.9821 50.2912H26.8839C25.9326 50.2912 25.1786 51.1265 25.2961 52.0752C25.5704 54.3497 26.562 56.4482 28.1512 58.0965L28.1521 58.0975C28.8837 58.8522 29.3528 59.7978 29.5175 60.8253ZM81.3029 61.007H56.4114C54.3886 61.007 52.5172 62.2942 52.5172 64.1312V83.3757C52.5172 85.2127 54.3886 86.5 56.4114 86.5H81.3029C83.3257 86.5 85.1972 85.2127 85.1972 83.3757V64.1312C85.1972 62.2942 83.3257 61.007 81.3029 61.007ZM34.9229 29.9165C34.9229 33.9072 31.7084 37.1479 27.7718 37.1479C23.8353 37.1479 20.6208 33.9072 20.6208 29.9165C20.6208 25.9258 23.8353 22.6851 27.7718 22.6851C31.7084 22.6851 34.9229 25.9258 34.9229 29.9165ZM40.7857 63.338H16.1429C14.6746 63.338 13.5 64.5405 13.5 66.0124V79.0591C13.5 82.9298 16.5964 86.0825 20.4286 86.0825H33.2857C36.9514 86.0825 39.944 83.1977 40.197 79.5591H40.7857C45.2071 79.5591 48.7857 75.9172 48.7857 71.4486C48.7857 66.9799 45.2071 63.338 40.7857 63.338ZM40.7857 74.2102H40.2143V68.6869H40.7857C42.2773 68.6869 43.5 69.917 43.5 71.4486C43.5 72.9801 42.2773 74.2102 40.7857 74.2102Z" fill="#F27C33" stroke="#532B12"/>
</svg>
