<svg width="96" height="97" viewBox="0 0 96 97" fill="none" xmlns="http://www.w3.org/2000/svg">
<rect x="2" y="2" width="92" height="93" rx="13" fill="black"/>
<rect x="2" y="2" width="92" height="93" rx="13" stroke="black" stroke-width="4"/>
<path d="M79.3029 59.507H54.4114C52.5375 59.507 51.0172 60.6824 51.0172 62.1312V81.3757C51.0172 82.8246 52.5375 84 54.4114 84H79.3029C81.1768 84 82.6972 82.8246 82.6972 81.3757V62.1312C82.6972 60.6824 81.1768 59.507 79.3029 59.507Z" fill="#F27C33"/>
<path d="M25.7718 14C18.1686 14 12 20.2334 12 27.9165C12 35.5996 18.1686 41.833 25.7718 41.833C32.323 41.833 37.8126 37.2038 39.1994 31.0091H50.1514V24.8239H39.1994C37.8126 18.6292 32.323 14 25.7718 14ZM33.4229 27.9165C33.4229 32.1784 29.9895 35.6479 25.7718 35.6479C21.5542 35.6479 18.1208 32.1784 18.1208 27.9165C18.1208 23.6546 21.5542 20.1851 25.7718 20.1851C29.9895 20.1851 33.4229 23.6546 33.4229 27.9165Z" fill="#F27C33"/>
<path d="M54.1682 36.253H79.8756C81.2067 36.253 82.2857 35.1626 82.2857 33.8176V22.4524C82.2857 21.1074 81.2067 20.017 79.8756 20.017H54.1682C52.8371 20.017 51.7581 21.1074 51.7581 22.4524V23.2642H51.3564C50.6909 23.2642 50.1514 23.8094 50.1514 24.4819V31.7881C50.1514 32.4606 50.6909 33.0058 51.3564 33.0058H51.7581V33.8176C51.7581 35.1626 52.8371 36.253 54.1682 36.253Z" fill="#F27C33"/>
<path d="M80.3265 50.2447H61.3469V47.5739C61.3469 44.5856 63.773 42.1029 66.8036 42.0727C69.8648 42.0425 72.3673 44.495 72.3673 47.506V48.7134C72.3673 49.717 72.906 50.2447 73.9239 50.2447H77.0586C78.0764 50.2447 78.4898 49.717 78.4898 48.7134V49.8242C78.4898 43.4854 73.2474 38.3313 66.8189 38.3539C60.3903 38.3766 55.2245 43.5986 55.2245 49.9374V50.2447H53.3878C51.3597 50.2447 49.7143 51.8671 49.7143 53.8669C49.7143 55.8666 51.3597 57.4891 53.3878 57.4891H80.3265C82.3546 57.4891 84 55.8666 84 53.8669C84 51.8671 82.3546 50.2447 80.3265 50.2447Z" fill="#F27C33"/>
<path d="M20.5112 58.7462C20.5982 59.2694 21.0469 59.6635 21.5826 59.6635H22.6875C23.3438 59.6635 23.8661 59.0859 23.779 58.4404C23.5246 56.5241 22.6808 54.7574 21.3281 53.3644C20.3638 52.3655 19.7478 51.1016 19.5603 49.729C19.4866 49.1922 19.0313 48.7912 18.4821 48.7912H17.3839C16.7277 48.7912 16.2188 49.3688 16.2924 50.0144C16.5536 52.182 17.4978 54.1798 19.0112 55.7495C19.8147 56.5785 20.3304 57.6182 20.5112 58.7462ZM28.0112 58.7462C28.0982 59.2694 28.5469 59.6635 29.0826 59.6635H30.1875C30.8438 59.6635 31.3661 59.0859 31.279 58.4404C31.0246 56.5241 30.1808 54.7574 28.8281 53.3644C27.8638 52.3655 27.2478 51.1016 27.0603 49.729C26.9866 49.1922 26.5313 48.7912 25.9821 48.7912H24.8839C24.2277 48.7912 23.7121 49.3688 23.7924 50.0144C24.0536 52.182 24.9978 54.1798 26.5112 55.7495C27.3147 56.5785 27.8304 57.6182 28.0112 58.7462ZM38.7857 61.838H14.1429C12.9576 61.838 12 62.8097 12 64.0124V77.0591C12 80.6606 14.8795 83.5825 18.4286 83.5825H31.2857C34.8348 83.5825 37.7143 80.6606 37.7143 77.0591H38.7857C42.9241 77.0591 46.2857 73.648 46.2857 69.4486C46.2857 65.2491 42.9241 61.838 38.7857 61.838ZM38.7857 72.7102H37.7143V66.1869H38.7857C40.5603 66.1869 42 67.6478 42 69.4486C42 71.2493 40.5603 72.7102 38.7857 72.7102Z" fill="#F27C33"/>
</svg>
